<svg width="32" height="32" viewBox="0 0 32 32" fill="none" xmlns="http://www.w3.org/2000/svg">
  <defs>
    <linearGradient id="bgGradient" x1="0%" y1="0%" x2="100%" y2="100%">
      <stop offset="0%" style="stop-color:#6366f1;stop-opacity:1" />
      <stop offset="100%" style="stop-color:#8b5cf6;stop-opacity:1" />
    </linearGradient>
    <linearGradient id="iconGradient" x1="0%" y1="0%" x2="100%" y2="100%">
      <stop offset="0%" style="stop-color:#ffffff;stop-opacity:1" />
      <stop offset="100%" style="stop-color:#e0e7ff;stop-opacity:1" />
    </linearGradient>
  </defs>
  
  <!-- Background circle -->
  <circle cx="16" cy="16" r="14" fill="url(#bgGradient)"/>
  
  <!-- Code brackets -->
  <g transform="translate(8, 10)">
    <path d="M3 3 L1 3 L1 13 L3 13 L3 11 L3 5 L3 3 Z" fill="url(#iconGradient)"/>
    <path d="M13 3 L15 3 L15 13 L13 13 L13 11 L13 5 L13 3 Z" fill="url(#iconGradient)"/>
  </g>
  
  <!-- AI network -->
  <g transform="translate(16, 16)">
    <circle cx="0" cy="0" r="2" fill="url(#iconGradient)"/>
    <circle cx="-3" cy="-4" r="1.5" fill="url(#iconGradient)"/>
    <circle cx="3" cy="-4" r="1.5" fill="url(#iconGradient)"/>
    <circle cx="-3" cy="4" r="1.5" fill="url(#iconGradient)"/>
    <circle cx="3" cy="4" r="1.5" fill="url(#iconGradient)"/>
    
    <line x1="0" y1="0" x2="-3" y2="-4" stroke="url(#iconGradient)" stroke-width="1"/>
    <line x1="0" y1="0" x2="3" y2="-4" stroke="url(#iconGradient)" stroke-width="1"/>
    <line x1="0" y1="0" x2="-3" y2="4" stroke="url(#iconGradient)" stroke-width="1"/>
    <line x1="0" y1="0" x2="3" y2="4" stroke="url(#iconGradient)" stroke-width="1"/>
  </g>
</svg>
