<svg width="64" height="64" viewBox="0 0 64 64" fill="none" xmlns="http://www.w3.org/2000/svg">
  <defs>
    <linearGradient id="bgGradient" x1="0%" y1="0%" x2="100%" y2="100%">
      <stop offset="0%" style="stop-color:#6366f1;stop-opacity:1" />
      <stop offset="100%" style="stop-color:#8b5cf6;stop-opacity:1" />
    </linearGradient>
    <linearGradient id="iconGradient" x1="0%" y1="0%" x2="100%" y2="100%">
      <stop offset="0%" style="stop-color:#ffffff;stop-opacity:1" />
      <stop offset="100%" style="stop-color:#e0e7ff;stop-opacity:1" />
    </linearGradient>
  </defs>
  
  <!-- Background circle -->
  <circle cx="32" cy="32" r="28" fill="url(#bgGradient)"/>
  
  <!-- Code brackets -->
  <g transform="translate(16, 20)">
    <!-- Left bracket -->
    <path d="M6 6 L2 6 L2 26 L6 26 L6 22 L6 10 L6 6 Z" fill="url(#iconGradient)"/>
    <!-- Right bracket -->
    <path d="M26 6 L30 6 L30 26 L26 26 L26 22 L26 10 L26 6 Z" fill="url(#iconGradient)"/>
  </g>
  
  <!-- AI network -->
  <g transform="translate(32, 32)">
    <!-- Central node -->
    <circle cx="0" cy="0" r="3" fill="url(#iconGradient)"/>
    <!-- Surrounding nodes -->
    <circle cx="-6" cy="-8" r="2" fill="url(#iconGradient)"/>
    <circle cx="6" cy="-8" r="2" fill="url(#iconGradient)"/>
    <circle cx="-6" cy="8" r="2" fill="url(#iconGradient)"/>
    <circle cx="6" cy="8" r="2" fill="url(#iconGradient)"/>
    
    <!-- Connection lines -->
    <line x1="0" y1="0" x2="-6" y2="-8" stroke="url(#iconGradient)" stroke-width="1.5"/>
    <line x1="0" y1="0" x2="6" y2="-8" stroke="url(#iconGradient)" stroke-width="1.5"/>
    <line x1="0" y1="0" x2="-6" y2="8" stroke="url(#iconGradient)" stroke-width="1.5"/>
    <line x1="0" y1="0" x2="6" y2="8" stroke="url(#iconGradient)" stroke-width="1.5"/>
  </g>
</svg>
