<svg width="200" height="200" viewBox="0 0 200 200" fill="none" xmlns="http://www.w3.org/2000/svg">
  <!-- Background circle with gradient -->
  <defs>
    <linearGradient id="bgGradient" x1="0%" y1="0%" x2="100%" y2="100%">
      <stop offset="0%" style="stop-color:#6366f1;stop-opacity:1" />
      <stop offset="100%" style="stop-color:#8b5cf6;stop-opacity:1" />
    </linearGradient>
    <linearGradient id="iconGradient" x1="0%" y1="0%" x2="100%" y2="100%">
      <stop offset="0%" style="stop-color:#ffffff;stop-opacity:1" />
      <stop offset="100%" style="stop-color:#e0e7ff;stop-opacity:1" />
    </linearGradient>
  </defs>
  
  <!-- Main background circle -->
  <circle cx="100" cy="100" r="90" fill="url(#bgGradient)" stroke="#4f46e5" stroke-width="2"/>
  
  <!-- Code brackets representing development -->
  <g transform="translate(50, 60)">
    <!-- Left bracket -->
    <path d="M20 20 L10 20 L10 80 L20 80 L20 70 L20 30 L20 20 Z" fill="url(#iconGradient)" stroke="none"/>
    <!-- Right bracket -->
    <path d="M80 20 L90 20 L90 80 L80 80 L80 70 L80 30 L80 20 Z" fill="url(#iconGradient)" stroke="none"/>
  </g>
  
  <!-- AI/Neural network nodes -->
  <g transform="translate(100, 100)">
    <!-- Central node -->
    <circle cx="0" cy="0" r="8" fill="url(#iconGradient)"/>
    <!-- Top node -->
    <circle cx="-15" cy="-25" r="6" fill="url(#iconGradient)"/>
    <!-- Bottom left node -->
    <circle cx="-20" cy="20" r="5" fill="url(#iconGradient)"/>
    <!-- Bottom right node -->
    <circle cx="20" cy="15" r="5" fill="url(#iconGradient)"/>
    <!-- Right node -->
    <circle cx="25" cy="-10" r="4" fill="url(#iconGradient)"/>
    
    <!-- Connection lines -->
    <line x1="0" y1="0" x2="-15" y2="-25" stroke="url(#iconGradient)" stroke-width="2"/>
    <line x1="0" y1="0" x2="-20" y2="20" stroke="url(#iconGradient)" stroke-width="2"/>
    <line x1="0" y1="0" x2="20" y2="15" stroke="url(#iconGradient)" stroke-width="2"/>
    <line x1="0" y1="0" x2="25" y2="-10" stroke="url(#iconGradient)" stroke-width="2"/>
    <line x1="-15" y1="-25" x2="25" y2="-10" stroke="url(#iconGradient)" stroke-width="1" opacity="0.6"/>
    <line x1="-20" y1="20" x2="20" y2="15" stroke="url(#iconGradient)" stroke-width="1" opacity="0.6"/>
  </g>
  
  <!-- Productivity arrows -->
  <g transform="translate(100, 140)">
    <path d="M-15 0 L15 0 M10 -5 L15 0 L10 5" stroke="url(#iconGradient)" stroke-width="3" fill="none" stroke-linecap="round" stroke-linejoin="round"/>
    <path d="M-15 0 L15 0 M10 -5 L15 0 L10 5" stroke="url(#iconGradient)" stroke-width="3" fill="none" stroke-linecap="round" stroke-linejoin="round" transform="translate(0, 8)"/>
  </g>
</svg>
